<svg version="1.1" width="516" height="83" viewBox="-1 -1 516 83" xmlns="http://www.w3.org/2000/svg" xmlns:xlink="http://www.w3.org/1999/xlink">
  <!-- Exported by Scratch - http://scratch.mit.edu/ -->
  <g id="ID0.719235094729811" transform="matrix(0.8890942931175232, 0, 0, 0.8890942931175232, -48, -81.75)">
    <g id="ID0.19623989053070545">
      <g id="ID0.19694278482347727">
        <path id="ID0.7483955235220492" fill="#c84646" d="M 69.255 76.074 C 70.371 76.074 71.326 76.471 72.121 77.266 C 72.915 78.060 73.313 79.016 73.313 80.131 C 73.313 81.247 72.924 82.194 72.146 82.972 C 64.606 88.991 56.102 92 46.634 92 C 35.442 92 25.881 88.035 17.952 80.106 C 10.022 72.177 6.058 62.616 6.058 51.424 C 6.058 40.232 10.022 30.671 17.952 22.742 C 25.881 14.812 35.442 10.848 46.634 10.848 C 56.304 10.848 64.910 13.942 72.450 20.129 C 73.228 20.941 73.617 21.905 73.617 23.021 C 73.617 24.136 73.220 25.092 72.425 25.886 C 71.630 26.681 70.675 27.078 69.559 27.078 C 68.443 27.078 67.480 26.672 66.668 25.861 C 60.954 21.262 54.276 18.963 46.634 18.963 C 37.673 18.963 30.023 22.133 23.683 28.473 C 17.343 34.813 14.173 42.463 14.173 51.424 C 14.173 60.384 17.343 68.035 23.683 74.375 C 30.023 80.715 37.673 83.885 46.634 83.885 C 54.377 83.885 61.140 81.518 66.922 76.784 C 67.598 76.311 68.376 76.074 69.255 76.074 Z Z M 109.527 43.309 C 103.914 43.309 99.129 45.287 95.173 49.243 C 91.217 53.199 89.239 57.984 89.239 63.597 C 89.239 69.210 91.217 73.994 95.173 77.951 C 99.129 81.907 103.914 83.885 109.527 83.885 C 115.140 83.885 119.924 81.907 123.881 77.951 C 127.837 73.994 129.815 69.210 129.815 63.597 C 129.815 57.984 127.837 53.199 123.881 49.243 C 119.924 45.287 115.140 43.309 109.527 43.309 Z M 129.815 83.479 C 124.134 89.160 117.372 92 109.527 92 C 101.682 92 94.987 89.227 89.442 83.682 C 83.896 78.136 81.124 71.441 81.124 63.597 C 81.124 55.752 83.896 49.057 89.442 43.511 C 94.987 37.966 101.682 35.193 109.527 35.193 C 117.372 35.193 124.067 37.966 129.612 43.511 C 135.157 49.057 137.930 55.752 137.930 63.597 L 137.930 87.942 C 137.930 89.058 137.533 90.013 136.738 90.808 C 135.944 91.603 134.988 92 133.873 92 C 132.757 92 131.801 91.603 131.007 90.808 C 130.212 90.013 129.815 89.058 129.815 87.942 L 129.815 83.479 Z Z M 156.088 63.597 C 153.011 62.447 150.864 61.247 149.647 59.996 C 147.246 57.629 146.045 54.771 146.045 51.424 C 146.045 48.076 147.297 45.151 149.799 42.649 C 154.668 37.679 161.025 35.193 168.870 35.193 C 177.357 35.193 184.627 38.592 190.679 45.388 C 191.220 46.031 191.474 46.825 191.440 47.772 C 191.440 48.888 191.043 49.843 190.248 50.638 C 189.453 51.432 188.498 51.830 187.382 51.830 C 186.267 51.830 185.370 51.475 184.694 50.764 C 184.018 50.054 183.528 49.547 183.223 49.243 C 179.267 45.287 174.483 43.309 168.870 43.309 C 163.256 43.309 158.776 45.067 155.429 48.583 C 154.617 49.564 154.211 50.731 154.211 52.083 C 154.313 53.672 155.141 54.754 156.697 55.329 L 181.651 63.597 C 184.728 64.746 186.875 65.947 188.092 67.198 C 190.493 69.565 191.694 72.422 191.694 75.770 C 191.694 79.117 190.443 82.042 187.940 84.544 C 183.071 89.515 176.714 92 168.870 92 C 160.349 92 153.079 88.602 147.060 81.805 C 146.553 81.095 146.299 80.301 146.299 79.421 C 146.299 78.306 146.696 77.350 147.491 76.556 C 148.286 75.761 149.241 75.364 150.357 75.364 C 151.472 75.364 152.369 75.719 153.045 76.429 C 153.721 77.139 154.211 77.646 154.516 77.951 C 158.472 81.907 163.256 83.885 168.870 83.885 C 174.483 83.885 178.963 82.126 182.310 78.610 C 183.122 77.629 183.528 76.463 183.528 75.110 C 183.426 73.521 182.598 72.439 181.042 71.864 L 156.088 63.597 Z Z M 199.809 14.905 C 199.809 13.789 200.206 12.834 201.001 12.040 C 201.795 11.245 202.751 10.848 203.866 10.848 C 204.982 10.848 205.938 11.245 206.732 12.040 C 207.527 12.834 207.924 13.789 207.924 14.905 L 207.924 42.548 C 212.996 37.645 219.083 35.193 226.183 35.193 C 233.453 35.193 239.666 37.772 244.823 42.928 C 249.980 48.085 252.558 54.298 252.558 61.568 L 252.558 87.942 C 252.558 89.058 252.161 90.013 251.366 90.808 C 250.571 91.603 249.616 92 248.500 92 C 247.384 92 246.429 91.603 245.635 90.808 C 244.840 90.013 244.443 89.058 244.443 87.942 L 244.443 61.568 C 244.443 56.530 242.659 52.227 239.092 48.660 C 235.524 45.092 231.222 43.309 226.183 43.309 C 221.145 43.309 216.842 45.092 213.275 48.660 C 209.708 52.227 207.924 56.530 207.924 61.568 L 207.924 87.942 C 207.924 89.058 207.527 90.013 206.732 90.808 C 205.938 91.603 204.982 92 203.866 92 C 202.751 92 201.795 91.603 201.001 90.808 C 200.206 90.013 199.809 89.058 199.809 87.942 L 199.809 14.905 Z Z M 297.192 18.963 L 297.192 43.309 L 309.365 43.309 C 312.712 43.309 315.578 42.117 317.962 39.733 C 320.345 37.349 321.537 34.483 321.537 31.136 C 321.537 27.788 320.345 24.923 317.962 22.539 C 315.578 20.155 312.712 18.963 309.365 18.963 L 297.192 18.963 Z M 297.192 51.424 L 297.192 83.885 L 313.422 83.885 C 317.919 83.885 321.749 82.304 324.910 79.142 C 328.072 75.981 329.653 72.151 329.653 67.654 C 329.653 63.157 328.072 59.328 324.910 56.166 C 321.749 53.005 317.919 51.424 313.422 51.424 L 297.192 51.424 Z M 293.134 10.848 L 309.365 10.848 C 314.978 10.848 319.762 12.826 323.718 16.782 C 327.674 20.738 329.653 25.523 329.653 31.136 C 329.653 36.749 327.674 41.533 323.718 45.490 C 326.221 46.673 328.537 48.313 330.667 50.409 C 335.401 55.177 337.768 60.925 337.768 67.654 C 337.768 74.383 335.392 80.123 330.642 84.874 C 325.891 89.625 320.151 92 313.422 92 L 293.134 92 C 292.018 92 291.063 91.603 290.268 90.808 C 289.474 90.013 289.076 89.058 289.076 87.942 L 289.076 14.905 C 289.076 13.789 289.474 12.834 290.268 12.040 C 291.063 11.245 292.018 10.848 293.134 10.848 Z Z M 374.286 43.309 C 368.673 43.309 363.889 45.287 359.933 49.243 C 355.976 53.199 353.998 57.984 353.998 63.597 C 353.998 69.210 355.976 73.994 359.933 77.951 C 363.889 81.907 368.673 83.885 374.286 83.885 C 379.899 83.885 384.684 81.907 388.640 77.951 C 392.596 73.994 394.574 69.210 394.574 63.597 C 394.574 57.984 392.596 53.199 388.640 49.243 C 384.684 45.287 379.899 43.309 374.286 43.309 Z M 394.574 83.479 C 388.894 89.160 382.131 92 374.286 92 C 366.442 92 359.747 89.227 354.201 83.682 C 348.656 78.136 345.883 71.441 345.883 63.597 C 345.883 55.752 348.656 49.057 354.201 43.511 C 359.747 37.966 366.442 35.193 374.286 35.193 C 382.131 35.193 388.826 37.966 394.372 43.511 C 399.917 49.057 402.690 55.752 402.690 63.597 L 402.690 87.942 C 402.690 89.058 402.292 90.013 401.498 90.808 C 400.703 91.603 399.748 92 398.632 92 C 397.516 92 396.561 91.603 395.766 90.808 C 394.972 90.013 394.574 89.058 394.574 87.942 L 394.574 83.479 Z Z M 410.805 39.251 C 410.805 38.135 411.202 37.180 411.997 36.385 C 412.791 35.591 413.747 35.193 414.863 35.193 C 415.978 35.193 416.934 35.591 417.728 36.385 C 418.523 37.180 418.920 38.135 418.920 39.251 L 418.920 42.548 C 423.992 37.645 430.079 35.193 437.179 35.193 C 444.449 35.193 450.663 37.772 455.819 42.928 C 460.976 48.085 463.554 54.298 463.554 61.568 L 463.554 87.942 C 463.554 89.058 463.157 90.013 462.362 90.808 C 461.567 91.603 460.612 92 459.496 92 C 458.380 92 457.425 91.603 456.631 90.808 C 455.836 90.013 455.439 89.058 455.439 87.942 L 455.439 61.568 C 455.439 56.530 453.655 52.227 450.088 48.660 C 446.520 45.092 442.218 43.309 437.179 43.309 C 432.141 43.309 427.838 45.092 424.271 48.660 C 420.704 52.227 418.920 56.530 418.920 61.568 L 418.920 87.942 C 418.920 89.058 418.523 90.013 417.728 90.808 C 416.934 91.603 415.978 92 414.863 92 C 413.747 92 412.791 91.603 411.997 90.808 C 411.202 90.013 410.805 89.058 410.805 87.942 L 410.805 39.251 Z Z M 479.784 58.119 L 514.122 35.802 C 514.764 35.396 515.491 35.193 516.303 35.193 C 517.419 35.193 518.374 35.591 519.169 36.385 C 519.963 37.180 520.361 38.135 520.361 39.251 C 520.361 40.367 519.972 41.314 519.194 42.091 C 518.991 42.294 518.805 42.463 518.636 42.599 L 495.102 57.916 L 519.245 85.102 C 519.989 85.914 520.361 86.860 520.361 87.942 C 520.361 89.058 519.963 90.013 519.169 90.808 C 518.374 91.603 517.419 92 516.303 92 C 515.187 92 514.207 91.594 513.361 90.783 L 488.153 62.379 L 479.784 67.806 L 479.784 87.942 C 479.784 89.058 479.387 90.013 478.592 90.808 C 477.798 91.603 476.843 92 475.727 92 C 474.611 92 473.656 91.603 472.861 90.808 C 472.066 90.013 471.669 89.058 471.669 87.942 L 471.669 14.905 C 471.669 13.789 472.066 12.834 472.861 12.040 C 473.656 11.245 474.611 10.848 475.727 10.848 C 476.843 10.848 477.798 11.245 478.592 12.040 C 479.387 12.834 479.784 13.789 479.784 14.905 L 479.784 58.119 Z " transform="matrix(1, 0, 0, 1, 48, 82)"/>
      </g>
    </g>
  </g>
</svg>